<?xml version="1.0" encoding="iso-8859-1"?>
<!-- Generator: Adobe Illustrator 16.0.0, SVG Export Plug-In . SVG Version: 6.00 Build 0)  -->
<!DOCTYPE svg PUBLIC "-//W3C//DTD SVG 1.1//EN" "http://www.w3.org/Graphics/SVG/1.1/DTD/svg11.dtd">
<svg version="1.1" id="Capa_1" xmlns="http://www.w3.org/2000/svg" xmlns:xlink="http://www.w3.org/1999/xlink" x="0px" y="0px"
	 width="371.244px" height="371.244px" viewBox="0 0 371.244 371.244" style="enable-background:new 0 0 371.244 371.244;"
	 xml:space="preserve">
<g>
	<path d="M371.244,288.456l-2.436-11.479L316.715,32.336l-2.686-12.583l-12.495,3.075l-16.148,3.964
		c-2.776-7.25-7.143-13.686-13.42-18.25c-5.956-4.335-13.184-4.646-18.883,0.25c-6.57,5.642-7.234,16.581-7.027,25.288
		c0.024,0.819,0.049,1.593,0.073,2.366l-10.717,2.637c-0.322-0.834-0.779-1.596-1.15-2.409c-2.789-6.153-6.698-11.664-12.19-15.655
		c-5.956-4.333-13.184-4.646-18.883,0.249c-6.187,5.325-7.131,15.351-7.045,23.781c0.018,1.09,0.03,2.153,0.066,3.179
		c0.013,0.171,0.013,0.326,0.024,0.493l-10.793,2.658c-0.101-0.244-0.237-0.469-0.335-0.713c-0.414-0.992-0.91-1.933-1.379-2.886
		c-2.75-5.587-6.448-10.596-11.53-14.285c-5.961-4.333-13.192-4.646-18.886,0.25c-5.818,5.005-7.015,14.185-7.066,22.271
		c-0.006,1.093,0.015,2.146,0.045,3.188c0.019,0.618,0.031,1.203,0.055,1.796l-10.875,2.673c-0.262-0.655-0.615-1.251-0.901-1.894
		c-0.438-0.98-0.88-1.952-1.379-2.887c-2.688-5.032-6.205-9.523-10.875-12.915c-5.961-4.332-13.192-4.646-18.886,0.25
		c-5.456,4.694-6.829,13.049-7.015,20.746c-0.024,1.09-0.037,2.143-0.024,3.197c0.012,1.065,0.03,2.101,0.067,3.105l-2.819,0.694
		l-8.223,1.809c-0.405-0.999-0.91-1.928-1.376-2.89c-0.469-0.959-0.85-1.97-1.379-2.893c-2.6-4.49-5.961-8.455-10.221-11.548
		c-5.961-4.333-13.192-4.646-18.885,0.25c-5.1,4.384-6.628,11.965-6.966,19.217c-0.049,1.084-0.091,2.156-0.101,3.218
		c-0.006,1.084,0.015,2.15,0.046,3.185l-24.131,5.3L0,316.337l77.99-22.858l0.661,3.032l0.643,3.051l0.928,4.408l-63.15,20.016
		l-16.779,5.327l16.386,6.431l75.271,29.532l1.291,0.506l0.013,0.061l0.088-0.024l0.554,0.22l2.016-0.561l152.077-42.582
		l5.943-1.662l-0.024-0.121l106.049-29.521L371.244,288.456z M261.444,18.07c0.597-0.679,0.633-0.597,0.889-0.548
		c1.583,0.304,2.911,1.397,4.5,2.957c2.283,2.256,4.074,4.938,5.541,7.83c0.256,0.506,0.524,0.987,0.755,1.504l-14.656,3.602
		c-0.024-0.667-0.024-1.358-0.024-2.049C258.436,26.338,258.959,20.938,261.444,18.07z M211.878,30.54
		c0.584-0.679,0.463-0.597,0.718-0.548c1.584,0.305,2.838,1.397,4.421,2.957c1.925,1.894,3.398,4.128,4.737,6.485
		c0.5,0.877,1.023,1.732,1.438,2.661l-7.331,1.952l-6.017,1.635c0-0.058,0-0.119,0-0.176c0-1.042-0.651-2.113-0.633-3.191
		C209.321,37.75,209.637,33.122,211.878,30.54z M158.762,53.255c0.21-4.04,0.935-7.949,2.917-10.245
		c0.594-0.679,0.63-0.597,0.886-0.548c1.583,0.305,2.911,1.397,4.497,2.957c1.559,1.535,2.85,3.292,4.016,5.136
		c0.579,0.916,1.121,1.86,1.607,2.837c0.167,0.338,0.381,0.643,0.536,0.987l-14.523,3.571c-0.012-0.487-0.012-0.983-0.012-1.477
		C158.68,55.402,158.705,54.328,158.762,53.255z M111.952,55.481c0.593-0.679,0.557-0.597,0.813-0.548
		c1.583,0.305,2.874,1.397,4.451,2.956c1.184,1.167,2.201,2.457,3.154,3.809c0.63,0.892,1.142,1.867,1.678,2.826
		c0.405,0.715,0.862,1.397,1.215,2.143c0.033,0.07,0.058,0.143,0.082,0.219l-13.262,3.325c0-0.917-0.654-1.848-0.636-2.795
		c0.018-1.084-0.231-2.165-0.137-3.23C109.626,60.715,110.226,57.479,111.952,55.481z M58.992,78.358
		c0.055-1.102,0.143-2.195,0.286-3.254c0.393-2.868,1.166-5.456,2.637-7.152c0.594-0.679,0.63-0.597,0.886-0.548
		c1.583,0.305,2.911,1.397,4.497,2.956c0.785,0.773,1.422,1.672,2.106,2.524c0.704,0.886,1.392,1.79,1.994,2.755
		c0.576,0.926,1.124,1.86,1.611,2.838L58.928,81.57C58.916,80.504,58.934,79.439,58.992,78.358z M250.666,309.098l-3.002,0.834
		l-3.002,0.834l-141.926,39.531l-9.258-43.965l-0.648-3.057l-0.648-3.068l-0.874-4.141l-0.639-3.062l-0.643-3.057L49.508,97.664
		l27.279-6.729c1.053,7.052,0.679,14.38-0.767,20.67c-1.803,7.828,10.217,11.149,12.026,3.318
		c1.897-8.229,2.235-17.765,0.725-26.929l37.929-9.329c1.017,6.99,0.643,14.233-0.792,20.469
		c-1.802,7.828,10.218,11.149,12.026,3.318c1.884-8.174,2.229-17.634,0.755-26.731l37.917-9.323c0.98,6.93,0.605,14.1-0.816,20.271
		c-1.802,7.828,10.218,11.149,12.026,3.319c1.872-8.12,2.223-17.498,0.785-26.531l37.914-9.323c0.95,6.866,0.572,13.954-0.84,20.07
		c-1.803,7.827,10.224,11.149,12.032,3.318c1.863-8.056,2.216-17.36,0.815-26.339l31.907-7.843l3.203-0.785l2.789-0.688
		c0.085,0.658,0.17,1.304,0.231,1.967c0.597,6.178,0.17,12.432-1.097,17.905c-1.802,7.828,10.224,11.149,12.032,3.319
		c1.852-8.001,2.204-17.223,0.853-26.138l16.1-3.961l52.1,244.636L250.666,309.098z M141.335,240.174l-38.048,9.121l-9.131-38.051
		l38.048-9.127L141.335,240.174z M149.345,237.763l-9.127-38.052l38.048-9.127l9.127,38.045L149.345,237.763z M186.258,188.161
		l38.042-9.134l9.134,38.046l-38.046,9.133L186.258,188.161z M270.358,167.5l9.134,38.045l-16.977,4.074l-3.19,0.767l-3.203,0.768
		l-14.687,3.52l-9.122-38.052l27.304-6.555l3.203-0.764l3.19-0.767L270.358,167.5z M278.366,165.092l38.051-9.128l9.128,38.048
		l-38.051,9.128L278.366,165.092z M183.448,180.275l-9.131-38.048l38.048-9.127l9.134,38.048L183.448,180.275z M229.476,168.727
		l-9.122-38.048l38.058-9.128l3.945,16.462l2.302,9.627l2.314,9.627l0.56,2.332l-0.779,0.186l-3.19,0.767l-3.19,0.767
		L229.476,168.727z M304.458,110.009l9.128,38.048l-38.052,9.127l-6.32-26.323l-2.302-9.63l-0.512-2.095l0.707-0.167l3.19-0.767
		L304.458,110.009z M152.832,284.229l0.457,1.9l-26.439,6.339l-11.609,2.782l-0.53-2.21l-0.868-3.604l-0.731-3.026l-0.728-3.032
		l-6.275-26.172l38.048-9.127l5.824,24.283l0.73,3.026l0.728,3.038l0.661,2.771L152.832,284.229z M198.932,272.891l0.402,1.688
		l-23.614,5.668l-14.44,3.459l-0.481-1.997l-0.728-3.044l-0.618-2.595l-0.731-3.032l-0.728-3.026l-5.831-24.356l38.055-9.121
		l5.376,22.444l0.731,3.032l0.73,3.026l0.414,1.766l0.73,3.038L198.932,272.891z M242.671,251.676l2.733,11.357l-6.813,1.638
		l-3.026,0.725l-3.032,0.73l-25.185,6.04l-0.427-1.802l-0.73-3.045l-0.73-3.026l-0.378-1.596l-0.73-3.032l-0.719-3.032
		l-5.401-22.512l38.045-9.127l4.951,20.623l0.725,3.033L242.671,251.676z"/>
</g>
<g>
</g>
<g>
</g>
<g>
</g>
<g>
</g>
<g>
</g>
<g>
</g>
<g>
</g>
<g>
</g>
<g>
</g>
<g>
</g>
<g>
</g>
<g>
</g>
<g>
</g>
<g>
</g>
<g>
</g>
</svg>
