<svg height="512" viewBox="0 0 128 128" width="512" xmlns="http://www.w3.org/2000/svg"><g><path d="m20.823 14.226h86.354v107.468h-86.354z" fill="#f45858"/><path d="m31.211 24.088h65.579v87.273h-65.579z" fill="#dfeef4"/><path d="m81.483 24.088v-13.4a4.379 4.379 0 0 0 -4.383-4.382h-26.2a4.379 4.379 0 0 0 -4.379 4.379v13.4z" fill="#3ea2e5"/><path d="m41.653 59.861h15.727v15.727h-15.727z" fill="#f2da30"/><path d="m41.653 85.611h15.727v15.727h-15.727z" fill="#f2da30"/><path d="m41.653 34.111h15.727v15.727h-15.727z" fill="#f2da30"/><g fill="#6d7a84"><path d="m86.347 43.725h-20.695a1.75 1.75 0 0 1 0-3.5h20.695a1.75 1.75 0 0 1 0 3.5z"/><path d="m86.347 69.475h-20.695a1.75 1.75 0 0 1 0-3.5h20.695a1.75 1.75 0 1 1 0 3.5z"/><path d="m86.347 95.225h-20.695a1.75 1.75 0 0 1 0-3.5h20.695a1.75 1.75 0 1 1 0 3.5z"/><path d="m49.528 45.635a1.745 1.745 0 0 1 -1.237-.513l-2.633-2.633a1.75 1.75 0 1 1 2.475-2.474l1.395 1.395 10.65-10.649a1.75 1.75 0 0 1 2.475 2.474l-11.887 11.887a1.745 1.745 0 0 1 -1.238.513z"/><path d="m49.528 71.385a1.745 1.745 0 0 1 -1.237-.513l-2.633-2.633a1.75 1.75 0 0 1 2.475-2.474l1.395 1.395 10.65-10.649a1.75 1.75 0 0 1 2.475 2.474l-11.887 11.887a1.745 1.745 0 0 1 -1.238.513z"/><path d="m49.528 97.135a1.745 1.745 0 0 1 -1.237-.513l-2.633-2.633a1.75 1.75 0 0 1 2.475-2.474l1.395 1.395 10.65-10.649a1.75 1.75 0 1 1 2.475 2.474l-11.887 11.887a1.745 1.745 0 0 1 -1.238.513z"/></g></g></svg>